<svg width="17" height="17" viewBox="0 0 17 17" fill="none" xmlns="http://www.w3.org/2000/svg">
<path d="M3.18764 2.12544H4.78139V1.59419C4.78139 1.45329 4.83736 1.31817 4.93699 1.21854C5.03662 1.11891 5.17174 1.06294 5.31264 1.06294C5.45354 1.06294 5.58866 1.11891 5.68829 1.21854C5.78792 1.31817 5.84389 1.45329 5.84389 1.59419V2.12544H11.1564V1.59419C11.1564 1.45329 11.2124 1.31817 11.312 1.21854C11.4116 1.11891 11.5467 1.06294 11.6876 1.06294C11.8285 1.06294 11.9637 1.11891 12.0633 1.21854C12.1629 1.31817 12.2189 1.45329 12.2189 1.59419V2.12544H13.8126C14.0944 2.12544 14.3647 2.23738 14.5639 2.43664C14.7632 2.6359 14.8751 2.90615 14.8751 3.18794V13.8129C14.8751 14.0947 14.7632 14.365 14.5639 14.5642C14.3647 14.7635 14.0944 14.8754 13.8126 14.8754H3.18764C2.90585 14.8754 2.6356 14.7635 2.43634 14.5642C2.23709 14.365 2.12514 14.0947 2.12514 13.8129V3.18794C2.12514 2.90615 2.23709 2.6359 2.43634 2.43664C2.6356 2.23738 2.90585 2.12544 3.18764 2.12544ZM12.2189 3.18794V3.71919C12.2189 3.86008 12.1629 3.99521 12.0633 4.09484C11.9637 4.19447 11.8285 4.25044 11.6876 4.25044C11.5467 4.25044 11.4116 4.19447 11.312 4.09484C11.2124 3.99521 11.1564 3.86008 11.1564 3.71919V3.18794H5.84389V3.71919C5.84389 3.86008 5.78792 3.99521 5.68829 4.09484C5.58866 4.19447 5.45354 4.25044 5.31264 4.25044C5.17174 4.25044 5.03662 4.19447 4.93699 4.09484C4.83736 3.99521 4.78139 3.86008 4.78139 3.71919V3.18794H3.18764V5.31294H13.8126V3.18794H12.2189ZM3.18764 13.8129H13.8126V6.37543H3.18764V13.8129ZM6.37514 10.0942C6.37514 10.2351 6.43111 10.3702 6.53074 10.4698C6.63037 10.5695 6.76549 10.6254 6.90639 10.6254H10.0939C10.2348 10.6254 10.3699 10.5695 10.4695 10.4698C10.5692 10.3702 10.6251 10.2351 10.6251 10.0942C10.6251 9.95328 10.5692 9.81816 10.4695 9.71853C10.3699 9.6189 10.2348 9.56293 10.0939 9.56293H6.90639C6.76549 9.56293 6.63037 9.6189 6.53074 9.71853C6.43111 9.81816 6.37514 9.95328 6.37514 10.0942Z" fill="#848484"/>
</svg>
